<svg width="512" height="512" xmlns="http://www.w3.org/2000/svg">
 <defs>
  <linearGradient spreadMethod="pad" y2="1" x2="1" y1="0" x1="0" id="svg_25">
   <stop offset="0" stop-color="#ffaa56"/>
   <stop offset="1" stop-color="#0055a9"/>
  </linearGradient>
 </defs>
 <g>
  <title>background</title>
  <rect fill="none" id="canvas_background" height="402" width="582" y="-1" x="-1"/>
 </g>
 <g>
  <title>Layer 1</title>
  <circle id="svg_3" r="256" fill="#ffaa56" cy="256.787208" cx="257.574415"/>
  <path fill-opacity="0.82" id="svg_4" fill="url(#svg_25)" d="m256,469.33386c-117.631,0 -213.33334,-95.70239 -213.33334,-213.33334c0,-117.63146 95.70234,-213.33331 213.33334,-213.33331c117.6362,0 213.33334,95.70186 213.33334,213.33331c0,117.63095 -95.69714,213.33334 -213.33334,213.33334z"/>
  <path id="svg_6" opacity="0.3" d="m264,189.584c-75.4838,0 -120,74.41493 -120,74.41493s44.5162,74.41654 120,74.41654c75.48419,0 120,-74.41654 120,-74.41654s-44.51581,-74.41493 -120,-74.41493zm0,123.89174c-27.32486,0 -49.4758,-22.15094 -49.4758,-49.47681c0,-27.32373 22.15094,-49.47467 49.4758,-49.47467c27.32474,0 49.4762,22.15094 49.4762,49.47467c0,27.32587 -22.15146,49.47681 -49.4762,49.47681z"/>
  <circle id="svg_7" r="15.483867" opacity="0.3" cy="263.999725" cx="264.000092"/>
  <path id="svg_9" fill="#FFFFFF" d="m256,181.584c-75.4838,0 -120,74.41493 -120,74.41493s44.5162,74.41654 120,74.41654c75.48419,0 120,-74.41654 120,-74.41654s-44.51581,-74.41493 -120,-74.41493zm0,123.89174c-27.32486,0 -49.4758,-22.15094 -49.4758,-49.47681c0,-27.32373 22.15094,-49.47467 49.4758,-49.47467c27.32474,0 49.4762,22.15094 49.4762,49.47467c0,27.32587 -22.15146,49.47681 -49.4762,49.47681z"/>
  <circle id="svg_10" r="15.483867" fill="#FFFFFF" cy="255.999741" cx="256.000092"/>
 </g>
</svg>